<svg id="Layer_1" data-name="Layer 1" xmlns="http://www.w3.org/2000/svg" viewBox="0 0 993.03 993.03"><defs><style>.cls-1{fill:#fff}</style></defs><path class="cls-1" d="M540 1036.52a496.64 496.64 0 01-193.27-954 496.64 496.64 0 01386.54 915 493.33 493.33 0 01-193.27 39zm0-968a471.65 471.65 0 00-183.53 906 471.64 471.64 0 00367.06-868.99A468.6 468.6 0 00540 68.48z" transform="translate(-43.48 -43.48)"/><path class="cls-1" d="M548.41 671.83a99.13 99.13 0 00-65.49-46.64 82 82 0 10-109.78 0 98.81 98.81 0 00-65.3 46.42c-3 4.84-7.7 15.89-16.32 38.24a365 365 0 00-19.73 76.46 11.76 11.76 0 0011.63 13.45h289.27a11.78 11.78 0 0011.64-13.5 373.65 373.65 0 00-19.85-76.43c-5.24-13.83-12.29-31.67-16.07-38zM369.52 564.38A58.52 58.52 0 11428 622.9a58.58 58.58 0 01-58.48-58.52zM519.9 776.22v-63.6a11.77 11.77 0 00-23.53 0v63.6H359.73v-63.6a11.77 11.77 0 00-23.53 0v63.6h-38.91a342.29 342.29 0 0116.21-58Q324.75 689 328 683.73a75.38 75.38 0 0164.69-37.22h70.65a75.5 75.5 0 0164.84 37.3c1.64 2.76 6.37 13.41 14.31 34.33a349.2 349.2 0 0116.29 58.08zM294.47 399.11h101.06a11.77 11.77 0 100-23.53H294.47a11.77 11.77 0 000 23.53z" transform="translate(-43.48 -43.48)"/><path class="cls-1" d="M898.42 749.87L809 599.37c43.48-45.84 53.4-116.7 19.58-173.65a143.61 143.61 0 00-70.26-60.2V203.93a11.76 11.76 0 00-11.76-11.77H355.28a11.76 11.76 0 00-11.76 11.77v39.43h-49.68a11.75 11.75 0 00-11.76 11.76v39.45H232.4a11.75 11.75 0 00-11.76 11.76v535.36a11.75 11.75 0 0011.76 11.76h391.31a11.76 11.76 0 0011.77-11.76v-39.44h49.68a11.75 11.75 0 0011.76-11.76v-39.44h49.68a11.76 11.76 0 0011.76-11.77v-71l72.33 121.82a37.31 37.31 0 0051.12 13l3.59-2.1a37.39 37.39 0 0013-51.12zM367.05 215.69h367.79v142.59a145 145 0 00-37.92-3.34v-99.82a11.75 11.75 0 00-11.76-11.76H367.05zm-61.45 51.19h367.79v91.28a144.26 144.26 0 00-37.91 14.1v-65.93a11.76 11.76 0 00-11.77-11.76H305.6zM612 829.93H244.16V318.09H612V388a144.51 144.51 0 000 223.4zm61.44-51.2h-37.96V627.21a145.9 145.9 0 0032.79 12.9c1.7.43 3.42.6 5.12 1zm61.45-51.21h-37.97v-83.33c2.46.13 4.93.47 7.39.47a143.26 143.26 0 0030.53-3.61zm-60.81-110.21a121.41 121.41 0 0129.75-239A122 122 0 01734 382.1a121.36 121.36 0 11-59.94 235.21zm205.59 155a13.75 13.75 0 01-6.28 8.45l-3.6 2.14a13.85 13.85 0 01-18.87-4.82l-87-146.61a148.4 148.4 0 0014.08-7.19 146.27 146.27 0 0013.16-8.88l87 146.49a13.64 13.64 0 011.51 10.42z" transform="translate(-43.48 -43.48)"/><path class="cls-1" d="M667.07 499.14l41.22-41.22a11.76 11.76 0 00-16.63-16.63l-41.23 41.22a11.76 11.76 0 1016.64 16.63zM759.49 445.94a11.76 11.76 0 00-16.64 0l-88.43 88.43A11.76 11.76 0 00671.05 551l88.44-88.44a11.76 11.76 0 000-16.62zM767.47 493.81a11.76 11.76 0 00-16.63 0L703.63 541a11.76 11.76 0 0016.63 16.64l47.21-47.21a11.78 11.78 0 000-16.62z" transform="translate(-43.48 -43.48)"/></svg>