<svg id="Layer_1" data-name="Layer 1" xmlns="http://www.w3.org/2000/svg" viewBox="0 0 993.03 993.03"><defs><style>.cls-1{fill:#fff}</style></defs><path class="cls-1" d="M540 1036.52a496.64 496.64 0 01-193.27-954 496.64 496.64 0 01386.54 915 493.33 493.33 0 01-193.27 39zm0-968a471.65 471.65 0 00-183.53 906 471.64 471.64 0 00367.06-868.99A468.6 468.6 0 00540 68.48z" transform="translate(-43.48 -43.48)"/><path class="cls-1" d="M728 645.68a73.36 73.36 0 00-103.47 0l-55.8 55.79A566.84 566.84 0 01461.66 617a567 567 0 01-84.53-107.07l55.79-55.79a73.33 73.33 0 000-103.47l-63.22-63.28a73.33 73.33 0 00-103.47 0L233 320.63c-43 42.95-54.95 110.94-33.77 191.42C219.74 590 269.15 671 338.38 740.23s150.26 118.64 228.18 139.15c26 6.84 50.64 10.21 73.59 10.21 48.16 0 88.75-14.89 117.83-44l33.24-33.24a73.36 73.36 0 000-103.47zM609.27 232.15a20.33 20.33 0 100 40.66c108.36 0 196.53 88.17 196.53 196.53a20.33 20.33 0 0040.66 0c0-130.79-106.41-237.19-237.19-237.19z" transform="translate(-43.48 -43.48)"/><path class="cls-1" d="M724.47 469.34a20.34 20.34 0 0040.67 0c0-85.95-69.93-155.87-155.87-155.87a20.33 20.33 0 100 40.66 115.33 115.33 0 01115.2 115.21z" transform="translate(-43.48 -43.48)"/></svg>