<svg id="Layer_1" data-name="Layer 1" xmlns="http://www.w3.org/2000/svg" viewBox="0 0 993.03 993.03"><defs><style>.cls-1{fill:#fff}</style></defs><path class="cls-1" d="M540 1036.52a496.64 496.64 0 01-193.27-954 496.64 496.64 0 01386.54 915 493.33 493.33 0 01-193.27 39zm0-968a471.65 471.65 0 00-183.53 906 471.64 471.64 0 00367.06-868.99A468.6 468.6 0 00540 68.48z" transform="translate(-43.48 -43.48)"/><path class="cls-1" d="M673.37 469.28h.06c0-.55-.06-1.09-.06-1.65zM406.63 469.28v-1.65c0 .56-.06 1.1-.06 1.65zM540 321.1c50.69 0 88.91-45.31 88.91-105.38 0-48.12-39.88-87.27-88.91-87.27s-88.91 39.15-88.91 87.27c0 60.07 38.22 105.38 88.91 105.38zm0-163c32.69 0 59.27 25.85 59.27 57.63 0 43.89-24.93 75.74-59.27 75.74s-59.27-31.85-59.27-75.74c0-31.79 26.59-57.64 59.27-57.64z" transform="translate(-43.48 -43.48)"/><path class="cls-1" d="M317.72 573c50.21 0 88.14-44.5 88.85-103.74 0-.55.06-1.09.06-1.65v-67.2a29.76 29.76 0 0118.5-27.49c24.44-10.12 64.34-22.19 115.66-22.19 51.13 0 90.37 12 114.26 22a29.73 29.73 0 0118.32 27.42v67.46c0 .56.06 1.1.06 1.65.71 59.26 38.63 103.74 88.85 103.74 50.69 0 88.91-45.31 88.91-105.39 0-48.11-39.88-87.26-88.91-87.26A89.39 89.39 0 00703 402.78v-2.61a59.31 59.31 0 00-36.47-54.74c-26.43-11.1-69.68-24.33-125.75-24.33s-100.08 13.29-127 24.44A59.29 59.29 0 00377 400.41v2.37a89.39 89.39 0 00-59.27-22.41c-49 0-88.91 39.15-88.91 87.26C228.81 527.71 267 573 317.72 573zm444.56-163c32.69 0 59.28 25.85 59.28 57.62 0 43.9-24.94 75.75-59.28 75.75S703 511.53 703 467.63c0-31.77 26.59-57.63 59.28-57.63zm-444.56 0c32.68 0 59.28 25.86 59.28 57.63 0 43.9-24.92 75.75-59.27 75.75s-59.28-31.85-59.28-75.75C258.44 435.86 285 410 317.72 410zM649.76 623.92q2.52-1 5.25-2c-1.81.69-3.55 1.36-5.25 2zM657.46 589.59c1.89-.62 3.87-1.23 5.85-1.84-1.98.62-3.96 1.25-5.85 1.84z" transform="translate(-43.48 -43.48)"/><path class="cls-1" d="M888.82 597.36c-26.43-11.1-69.7-24.36-125.76-24.36-7.21 0-14.2.23-21 .63-3 .18-5.91.51-8.87.77-3.6.3-7.27.56-10.74 1s-7 1-10.37 1.46c-2.65.39-5.36.74-7.92 1.18-3.54.6-6.88 1.3-10.25 2-2.26.46-4.58.89-6.77 1.39-3.23.73-6.29 1.51-9.35 2.3-2.14.55-4.32 1.09-6.39 1.66-2.79.78-5.44 1.58-8.08 2.39-2 .61-4 1.22-5.85 1.84a153.73 153.73 0 01-7.7 34.32c1.7-.69 3.44-1.36 5.25-2 1.57-.59 3.2-1.18 4.87-1.78 2.25-.81 4.54-1.6 7-2.39 1.51-.49 3.1-1 4.68-1.47 2.72-.84 5.46-1.66 8.36-2.46 1.51-.42 3.1-.81 4.66-1.21 3.12-.81 6.26-1.61 9.58-2.35 1.62-.37 3.35-.68 5-1 3.4-.7 6.79-1.4 10.37-2 2-.34 4.15-.61 6.22-.92 3.42-.51 6.79-1 10.37-1.46 2.91-.33 6-.54 9-.8s5.79-.58 8.83-.76c6.19-.37 12.57-.58 19.14-.58 51.13 0 90.36 12 114.28 22a29.7 29.7 0 0118.31 27.41v113.49h29.64V652.09a59.27 59.27 0 00-36.51-54.73zM422.51 589.28a333 333 0 00-104-16.26c-56.22 0-100.1 13.28-127 24.44a59.26 59.26 0 00-36.8 54.86v113.34h29.64V652.32a29.73 29.73 0 0118.5-27.48c24.42-10.12 64.31-22.19 115.66-22.19 49.37 0 87.52 11.17 111.63 21a153.4 153.4 0 01-7.63-34.37zM666.54 701.09a299.28 299.28 0 00-37.63-12.83c-9.06-2.45-18.95-4.69-29.64-6.54a347 347 0 00-118.54.26c-10.64 1.87-20.59 4.09-29.64 6.54a307.73 307.73 0 00-37.3 12.67A59.27 59.27 0 00377 756.05v113.34h29.64V756.05a29.73 29.73 0 0118.5-27.48c7.27-3 16.06-6.17 26-9.15a301.1 301.1 0 0129.64-7.26 314.81 314.81 0 0160.06-5.78 310.84 310.84 0 0158.48 5.53 292.76 292.76 0 0129.64 7.21 270.37 270.37 0 0126.15 9.29 29.71 29.71 0 0118.31 27.41v113.57H703V755.82a59.27 59.27 0 00-36.46-54.73z" transform="translate(-43.48 -43.48)"/><path class="cls-1" d="M451.09 571.37a131.49 131.49 0 003.85 32c4.75 18.92 13.74 35.2 25.7 47.64 15.53 16.13 36.1 25.76 59.36 25.76s43.85-9.64 59.38-25.78c11.89-12.36 20.83-28.52 25.59-47.3a131.47 131.47 0 003.94-32.3c0-48.12-39.88-87.27-88.91-87.27s-88.91 39.13-88.91 87.25zm148.18 0c0 43.89-24.93 75.74-59.27 75.74s-59.27-31.85-59.27-75.74c0-31.78 26.59-57.63 59.27-57.63s59.27 25.85 59.27 57.63z" transform="translate(-43.48 -43.48)"/></svg>